<?xml version="1.0" encoding="UTF-8"?>
<svg width="60px" height="60px" viewBox="0 0 60 60" version="1.1" xmlns="http://www.w3.org/2000/svg" xmlns:xlink="http://www.w3.org/1999/xlink">
    <title>512 - Play Store</title>
    <defs>
        <rect id="path-1" x="0" y="0" width="60" height="60" rx="11"></rect>
    </defs>
    <g id="512---Play-Store" stroke="none" stroke-width="1" fill="none" fill-rule="evenodd">
        <g id="Group">
            <mask id="mask-2" fill="white">
                <use xlink:href="#path-1"></use>
            </mask>
            <rect stroke="#979797" x="0.5" y="0.5" width="59" height="59" rx="11"></rect>
            <rect id="background" fill="#0B3F7D" mask="url(#mask-2)" x="-4.90909091" y="-4.90909091" width="69.8181818" height="69.8181818"></rect>
            <path d="M27.0722752,23.7031198 C28.2900219,17.0970805 33.9791778,12.0409754 40.9130081,11.7364773 L40.9130038,11.7364775 C37.807451,9.99431824 34.2194383,9 30.3973722,9 C18.5799298,9 9,18.5055226 9,30.231179 C9,41.9568353 18.5799298,51.462358 30.3973722,51.462358 C39.3774031,51.462358 47.0653994,45.973466 50.239535,38.1924843 C47.8073746,39.9475879 44.8135985,40.9828658 41.5761275,40.9828658 C36.2985795,40.9828658 31.6686198,38.2317458 29.0634498,34.0960104 C28.2059814,34.0552706 27.6239492,33.9102895 26.7337672,33.5961076 C25.7645646,33.2540361 25.254018,33.1459204 24.1880327,33.1459204 C23.0422304,33.1459204 21.8036391,33.3207803 20.5629632,33.6127041 C20.1271245,33.7152543 19.7225624,33.8250902 19.3601795,33.9347187 C19.2340147,33.9728862 19.122391,34.0082072 19.0266597,34.0397423 C18.9704414,34.0582612 18.9327811,34.0711243 18.9150255,34.077391 L18.1880327,34.3339767 L18.1880327,24.3215004 L18.551949,24.1930593 C18.5768069,24.1842859 18.6217106,24.1689488 18.6853431,24.1479875 C18.7893632,24.1137221 18.9094512,24.0757226 19.0442949,24.0349296 C19.4276507,23.9189564 19.8540544,23.8031907 20.3131021,23.6951795 C21.6292444,23.3854989 22.9474713,23.1993963 24.1880327,23.1993963 C25.3855629,23.1993963 26.0110033,23.3299067 27.072275,23.7031202 L27.0722752,23.7031198 Z" id="moon" fill="#F8E71C" mask="url(#mask-2)"></path>
            <g id="river" mask="url(#mask-2)" fill="#D8D8D8">
                <g transform="translate(19.000000, 23.000000)">
                    <path d="M32.842276,7.50743997 C32.8044854,7.50782572 32.7661563,7.50802139 32.7272727,7.50802139 C30.000032,7.50802139 30,6.54545455 27.2727273,6.54545455 C24.5454545,6.54545455 24.5454545,7.50802139 21.8181818,7.50802139 C19.0909091,7.50802139 19.0909091,6.54545455 16.3636364,6.54545455 C13.6363636,6.54545455 13.6363636,7.50802139 10.9090909,7.50802139 C8.18181818,7.50802139 8.18181818,6.54545455 5.45454545,6.54545455 C2.72727273,6.54545455 0,7.50802139 0,7.50802139 L0,9.81818182 C0,9.81818182 2.72727273,8.85561497 5.45454545,8.85561497 C8.18181818,8.85561497 8.18181818,9.81818182 10.9090909,9.81818182 C13.6363636,9.81818182 13.6363636,8.85561497 16.3636364,8.85561497 C19.0909091,8.85561497 19.0909091,9.81818182 21.8181818,9.81818182 C24.5454545,9.81818182 24.5454545,8.85561497 27.2727273,8.85561497 C29.9615488,8.85561497 29.9994579,9.79123111 32.6135301,9.81761321 C32.7304915,9.06001051 32.8074799,8.289212 32.8422728,7.50744 L32.842276,7.50743997 Z" id="bottom"></path>
                    <path d="M32.7396472,4.2352875 C32.7355286,4.23529191 32.7314038,4.23529412 32.7272727,4.23529412 C30.000032,4.23529412 30,3.27272727 27.2727273,3.27272727 C24.5454545,3.27272727 24.5454545,4.23529412 21.8181818,4.23529412 C19.0909091,4.23529412 19.0909091,3.27272727 16.3636364,3.27272727 C13.6363636,3.27272727 13.6363636,4.23529412 10.9090909,4.23529412 C8.18181818,4.23529412 8.18181818,3.27272727 5.45454545,3.27272727 C2.72727273,3.27272727 0,4.23529412 0,4.23529412 L0,6.54545455 C0,6.54545455 2.72727273,5.5828877 5.45454545,5.5828877 C8.18181818,5.5828877 8.18181818,6.54545455 10.9090909,6.54545455 C13.6363636,6.54545455 13.6363636,5.5828877 16.3636364,5.5828877 C19.0909091,5.5828877 19.0909091,6.54545455 21.8181818,6.54545455 C24.5454545,6.54545455 24.5454545,5.5828877 27.2727273,5.5828877 C30,5.5828877 30,6.54545455 32.7272727,6.54545455 C32.773502,6.54545455 32.8189477,6.54517797 32.8636363,6.54463421 C32.8636069,5.76432544 32.8215643,4.99383029 32.7396472,4.2352875 L32.7396472,4.2352875 Z" id="Combined-Shape"></path>
                    <path d="M32.1186745,0.944849306 C29.9823447,0.813794895 29.7803985,-1.42108547e-14 27.2727273,-1.42108547e-14 C24.5454545,-1.41858051e-14 24.5454545,0.962566845 21.8181818,0.962566845 C19.0909091,0.962566845 19.0909091,-1.42108547e-14 16.3636364,-1.42108547e-14 C13.6363636,-1.41858051e-14 13.6363636,0.962566845 10.9090909,0.962566845 C8.18181818,0.962566845 8.18181818,-1.42108547e-14 5.45454545,-1.42108547e-14 C2.72727273,-1.41858051e-14 0,0.962566845 0,0.962566845 L0,3.27272727 C0,3.27272727 2.72727273,2.31016043 5.45454545,2.31016043 C8.18181818,2.31016043 8.18181818,3.27272727 10.9090909,3.27272727 C13.6363636,3.27272727 13.6363636,2.31016043 16.3636364,2.31016043 C19.0909091,2.31016043 19.0909091,3.27272727 21.8181818,3.27272727 C24.5454545,3.27272727 24.5454545,2.31016043 27.2727273,2.31016043 C29.9614885,2.31016043 29.9994562,3.2457346 32.6133542,3.27215689 C32.491193,2.48115798 32.3254566,1.70454562 32.1186745,0.944849306 L32.1186745,0.944849306 Z" id="Combined-Shape"></path>
                </g>
            </g>
        </g>
    </g>
</svg>